<svg width="25" height="49" viewBox="0 0 25 49" fill="none" xmlns="http://www.w3.org/2000/svg">
<path d="M24.7829 15.3143V7.65842C24.7829 6.81284 24.0971 6.12726 23.251 6.12726H21.719V1.53375C21.719 0.68816 21.0332 0.0025787 20.187 0.0025787C18.0182 0.0025787 14.6967 -0.163553 10.7976 2.1711C8.37386 1.45001 6.65969 1.53375 4.86738 1.53375C4.02126 1.53375 3.33542 2.21933 3.33542 3.06492V6.12726H1.80345C0.957327 6.12726 0.271484 6.81284 0.271484 7.65842V15.3143C0.271484 21.5501 4.95787 26.7123 10.9952 27.4681V47.4688C10.9952 48.3144 11.6811 49 12.5272 49C13.3733 49 14.0592 48.3144 14.0592 47.4688V42.1097H16.3571C21.0031 42.1097 24.7829 38.3319 24.7829 33.6883V31.3915C24.7829 30.546 24.0971 29.8604 23.251 29.8604H19.4211C17.3859 29.8604 15.517 30.5853 14.0592 31.7903V27.4674C20.0876 26.7212 24.7829 21.5847 24.7829 15.3143ZM21.719 15.3143C21.719 18.0393 20.5133 20.5004 18.6076 22.1879C18.6377 21.9422 18.6551 21.6926 18.6551 21.4389C18.6551 17.5614 17.2047 14.0165 14.8187 11.3159C16.8415 9.93633 19.2399 9.18959 21.719 9.18959V15.3143ZM18.6551 3.06492V6.43617C18.372 6.49378 18.0908 6.55952 17.812 6.63292C16.8182 5.52101 15.6847 4.57369 14.4472 3.8082C15.7848 3.31938 17.2049 3.06492 18.6551 3.06492ZM6.39935 4.59609C9.44289 4.59609 12.3985 5.70685 14.6972 7.82915C13.9385 8.22046 13.2111 8.67665 12.5227 9.1939C10.7415 7.85547 8.66025 6.89562 6.39935 6.43512V4.59609ZM3.33542 15.3143V9.18959C10.0932 9.18959 15.5911 14.6846 15.5911 21.4389C15.5911 23.15 14.1774 24.5443 12.4467 24.4998C7.0647 24.367 3.33542 20.0933 3.33542 15.3143ZM19.4211 32.9227H21.719V33.6883C21.719 36.6433 19.3137 39.0474 16.3571 39.0474H14.0592V38.2818C14.0592 35.3268 16.4646 32.9227 19.4211 32.9227Z" fill="white"/>
</svg>
