<svg width="1915" height="821" viewBox="0 0 1915 821" fill="none" xmlns="http://www.w3.org/2000/svg">
<mask id="mask0_26_22" style="mask-type:alpha" maskUnits="userSpaceOnUse" x="-5" y="0" width="1920" height="821">
<rect x="-5" width="1920" height="821" fill="white"/>
</mask>
<g mask="url(#mask0_26_22)">
<path fill-rule="evenodd" clip-rule="evenodd" d="M-246.474 -218.642C-246.553 -241.058 -278.185 -266.266 -291.697 -279.262C-318.414 -304.966 -346.2 -328.703 -373.73 -352.819C-401.259 -376.934 -428.862 -400.985 -455.113 -427.46C-472.158 -444.647 -492.186 -464.003 -503.745 -488.544C-528.371 -540.842 -450.728 -533.076 -430.617 -534.22C-379.453 -537.142 -320.767 -535.808 -272.809 -563.042C-244.18 -579.3 -232.764 -606.567 -238.913 -646.307C-240.895 -659.231 -246.761 -674.103 -241.792 -686.693C-236.485 -700.14 -224.276 -707.9 -214.143 -713.104C-177.185 -732.062 -134.692 -734.258 -95.5883 -736.638C-53.4223 -739.253 -10.86 -738.488 31.0086 -738.69C48.7619 -738.775 67.303 -747.189 84.209 -754.027C106.372 -762.989 128.273 -773.056 150.252 -782.79C198.607 -804.154 248.433 -826.655 299.592 -832.081C331.63 -835.48 366.646 -830.885 391.535 -801.317C404.031 -786.471 410.571 -764.401 417.795 -744.796C426.541 -721.112 434.939 -697.199 444.249 -673.887C474.241 -598.807 517.061 -525.44 586.563 -521.753C597.077 -521.197 607.403 -523.008 617.868 -523.348C624.532 -523.557 630.463 -521.433 632.941 -512.235C639.169 -489.165 619.592 -452.746 611.565 -434.442C593.99 -394.376 574.171 -356.107 555.605 -316.844C543.322 -290.878 522.061 -255.394 521.838 -223.846C521.64 -195.736 549.981 -175.418 565.411 -161.572C579.869 -148.609 606.065 -130.468 607.651 -104.097C608.419 -91.3106 602.027 -80.7137 595.353 -72.4899C583.655 -58.1081 570.177 -47.9623 559.653 -31.5539C542.395 -4.63369 527.977 32.4061 530.32 68.6811C531.946 93.8167 542.817 110.277 556.646 126.012C562.458 132.628 567.175 137.309 567.482 148.049C567.977 165.105 562.914 183.154 558.742 198.968C543.818 255.56 522.621 310.283 499.04 361.378C487.258 386.912 474.529 412.368 458.906 434.15C448.674 448.454 434.875 465.477 419.267 465.457C401.197 465.457 382.076 456.854 364.511 450.421C331.705 438.4 299.295 424.501 267.014 410.244C192.361 377.257 118.409 341.599 45.1597 303.269C-6.4353 276.224 -59.1254 249.141 -107.634 213.186C-117.094 206.125 -126.023 197.893 -134.301 188.6C-143.145 178.84 -154.12 174.473 -165.249 171.217C-234.32 151.011 -309.99 166.524 -379.349 176.251C-396.953 178.715 -414.558 181.193 -432.212 182.919C-447.389 184.403 -465.558 188.659 -480.309 182.265C-509.374 169.681 -483.966 123.299 -473.223 104.4C-435.403 37.8582 -386.607 -18.4403 -341.379 -75.9154C-319.875 -103.287 -298.208 -130.586 -277.873 -159.507C-267.284 -174.542 -246.404 -198.991 -246.474 -218.642Z" stroke="#5BE7C3" stroke-width="2"/>
<path fill-rule="evenodd" clip-rule="evenodd" d="M-233.44 -222.421C-245.033 -246.141 -265.372 -263.673 -282.255 -280.172C-306.55 -303.924 -331.609 -326.356 -356.291 -349.436C-379.63 -371.26 -403.018 -393.333 -424.631 -418.118C-437.81 -433.232 -454.346 -451.306 -460.588 -473.659C-474.129 -522.111 -401.283 -514.76 -383.299 -516.028C-338.59 -519.165 -287.902 -519.883 -246.54 -545.393C-220.713 -561.324 -210.102 -587.742 -215.611 -624.419C-217.514 -637.109 -220.946 -647.943 -216.602 -660.567C-211.579 -675.178 -200.027 -684.287 -189.436 -690.717C-156.26 -710.862 -117.045 -715.142 -81.083 -718.703C-43.9307 -722.382 -5.22158 -724.976 30.7357 -722.284C45.1147 -721.212 61.6654 -727.296 75.8956 -731.961C97.7913 -739.149 119.464 -747.441 141.25 -755.152C185.528 -770.834 230.955 -785.941 277.018 -787.66C310.273 -788.901 344.946 -782.171 372.613 -756.158C400.652 -729.779 413.092 -688.887 428.641 -650.014C455.495 -582.809 491.765 -501.097 553.892 -486.898C563.313 -484.742 572.366 -485.911 581.777 -485.382C586.616 -485.114 592.125 -484.265 594.579 -477.972C600.951 -461.636 583.493 -431.768 577.617 -419.255C561.384 -384.675 543.132 -351.788 526.121 -317.875C512.609 -290.947 495.484 -261.026 490.258 -229.106C483.916 -190.371 525.352 -162.809 539.924 -135.534C565.187 -88.2391 517.325 -61.2916 493.728 -38.7416C466.631 -12.8526 444.265 34.3774 468.555 74.4328C477.847 89.7493 489.281 98.8777 493.431 118.866C499.921 150.126 495.013 185.85 489.747 216.75C481.814 263.203 469.259 309.152 452.193 351.135C439.966 381.193 419.682 428.325 389.977 424.79C369.98 422.431 349.651 413.812 330.18 406.193C301.025 394.791 272.238 381.794 243.604 368.294C177.505 337.217 112.136 302.951 48.05 265.261C4.32308 239.536 -117.65 134.405 -126.828 130.654C-154.193 119.48 -185.306 121.447 -213.518 123.179C-251.047 125.479 -288.388 131.438 -325.699 136.96C-343.459 139.573 -361.309 142.769 -379.164 144.056C-391.872 144.971 -408.561 145.755 -419.693 136.012C-441.42 117.004 -417.213 73.5115 -407.203 55.1108C-376.536 -1.29996 -337.742 -50.1505 -301.369 -100.099C-283.519 -124.622 -265.396 -149.106 -249.193 -175.596C-242.658 -186.293 -226.276 -207.771 -233.44 -222.421Z" stroke="#5ACEF2" stroke-width="2"/>
<path fill-rule="evenodd" clip-rule="evenodd" d="M-217.403 -234.586C-249.062 -282.052 -292.757 -317.353 -330.469 -356.995C-349.397 -376.898 -368.444 -397.343 -384.769 -421.049C-393.262 -433.377 -403.866 -448.965 -405.502 -466.149C-409.874 -512.118 -344.217 -505.902 -324.565 -507.647C-286.57 -511.032 -243.648 -513.601 -209.178 -537.059C-188.119 -551.4 -177.748 -574.936 -181.684 -605.872C-183.429 -619.598 -186.146 -631.258 -181.684 -644.736C-177.163 -658.39 -167.743 -668.024 -158.205 -675.247C-130.795 -696.019 -96.7316 -702.659 -65.871 -707.607C-29.6683 -713.37 6.80657 -715.62 43.2592 -714.339C75.1858 -713.235 106.959 -725.66 138.132 -733.85C179.428 -744.693 221.473 -754.164 263.731 -752.733C297.105 -751.595 330.742 -742.661 359.272 -718.915C388.264 -694.731 405.695 -658.534 421.41 -619.474C445.167 -560.426 474.773 -481.3 526.891 -458.874C534.472 -455.606 541.536 -455.246 549.354 -454.678C553.152 -454.403 558.055 -454.318 559.938 -449.096C564.47 -436.52 547.718 -412.141 543.043 -403.644C528.121 -376.519 511.945 -350.616 496.651 -323.85C482.373 -298.863 466.821 -272.823 457.952 -243.541C443.838 -196.905 488.961 -169.636 487.697 -125.197C486.909 -97.608 466.876 -77.8231 451.011 -64.1364C431.479 -47.3058 403.355 -36.2401 393.578 -5.52676C386.296 17.3498 397.723 30.6639 406.523 48.0239C421.435 77.4366 422.451 117.307 420.899 151.354C418.807 197.362 410.632 244.05 396.717 286.338C390.411 305.509 382.687 325.451 371.314 340.34C360.66 354.295 350.577 357.87 336.339 355.014C292.752 346.255 248.744 321.843 206.947 300.038C154.432 272.639 102.641 242.389 52.396 208.356C18.1345 185.146 -16.9004 160.589 -46.9728 128.523C-54.8107 120.163 -62.8369 111.078 -68.5678 100.052C-72.9007 91.7638 -74.7399 84.9205 -82.0424 80.1883C-103.687 66.1682 -133.794 69.835 -156.985 71.2926C-194.068 73.6129 -230.972 79.7896 -267.826 85.3519C-289.332 88.6199 -329.845 98.9013 -347.018 74.2404C-361.841 52.9456 -343.954 16.6373 -334.817 -2.12143C-311.705 -49.5608 -281.975 -91.1961 -254.391 -134.067C-241.749 -153.714 -228.612 -173.512 -218.171 -195.356C-215.504 -200.925 -211.231 -208.304 -210.497 -215.069C-209.674 -222.821 -213.516 -228.736 -217.403 -234.586Z" stroke="#5BE7C3" stroke-width="2"/>
<path fill-rule="evenodd" clip-rule="evenodd" d="M-214.681 -223.536C-243.935 -265.505 -279.178 -299.983 -310.584 -339.256C-324.666 -356.865 -338.886 -375.338 -349.616 -396.819C-355.387 -408.371 -361.515 -422.912 -359.924 -437.27C-355.357 -478.479 -301.357 -474.757 -279.54 -477.171C-247.123 -480.716 -209.882 -484.288 -181.218 -506.508C-162.441 -521.062 -155.4 -542.557 -158.905 -570.278C-162.669 -600.014 -154.255 -621.6 -135.106 -638.189C-111.098 -658.97 -80.7928 -667.441 -52.9174 -673.459C-19.333 -680.675 14.6768 -683.873 48.6975 -683.015C81.784 -682.178 113.839 -689.491 146.708 -694.247C190.286 -700.546 235.262 -703.653 278.35 -690.741C315.864 -679.496 349.749 -654.718 375.15 -616.4C401.682 -576.407 414.816 -526.02 436.36 -481.776C449.797 -454.179 468.534 -417.672 493.643 -406.945C502.018 -403.367 517.279 -408.194 510.59 -390.592C506.768 -380.525 499.613 -371.694 493.96 -363.465C484.827 -350.167 475.392 -337.235 466.105 -324.12C446.311 -296.163 425.115 -267.611 410.28 -234.506C391.587 -192.825 419.373 -160.747 415.987 -118.485C414.167 -95.7411 402.178 -77.5893 389.495 -63.3295C381.289 -54.0934 372.309 -46.0935 363.141 -38.63C353.567 -30.8329 342.237 -24.8935 333.888 -14.8135C321.988 -0.468691 327.154 16.5122 329.385 35.0565C333.313 67.6461 334.175 100.751 331.954 133.619C329.237 173.906 322.865 215.345 309.443 251.956C304.222 266.209 297.608 281.319 287.785 290.876C277.963 300.432 267.804 299.778 256.548 296.9C223.164 288.397 189.85 268.61 158.181 249.856C118.545 226.38 79.6867 200.143 42.5789 170.296C16.9645 149.691 -8.73421 127.431 -30.1639 99.4937C-36.3964 91.363 -42.3265 82.6567 -47.1212 72.9365C-50.4135 66.271 -52.1786 57.6694 -56.9485 52.6588C-71.8729 37.0189 -101.836 41.6893 -119.338 42.5985C-154.27 44.4104 -188.65 53.0251 -223.537 55.1183C-242.576 56.263 -272.395 59.1411 -286.378 37.758C-299.527 17.6569 -287.617 -14.0024 -279.758 -33.3709C-264.313 -71.4537 -243.563 -105.383 -224.965 -140.784C-217.319 -155.351 -208.939 -170.592 -203.986 -187.226C-199.583 -202.048 -207.184 -212.776 -214.681 -223.536Z" stroke="#5ACEF2" stroke-width="2"/>
<path fill-rule="evenodd" clip-rule="evenodd" d="M-207.486 -222.85C-230.771 -259.781 -258.842 -292.564 -282.296 -330.096C-296.024 -352.075 -319.666 -389.026 -309.049 -420.012C-297.401 -454.063 -256.801 -454.99 -233.333 -457.734C-205.4 -461 -172.598 -465.461 -148.694 -486.722C-141.133 -493.443 -134.693 -502.339 -131.963 -514.057C-129.04 -526.599 -132.236 -537.572 -132.652 -550.126C-133.524 -576.462 -121.604 -597.606 -105.829 -612.126C-83.535 -632.656 -55.6573 -642.362 -29.3253 -649.129C0.507377 -656.761 30.8352 -660.524 61.2241 -660.363C90.2661 -660.233 119.001 -661.082 148.073 -662.062C186.092 -663.368 224.646 -661.258 261.526 -647.94C297.855 -634.811 330.886 -610.206 356.831 -574.013C382.143 -538.695 399.22 -495.527 414.177 -451.555C422.664 -426.596 437.001 -389.3 457.245 -376.693C466.246 -371.083 475.08 -371.468 465.508 -356.876C453.455 -338.502 437.209 -323.76 423.248 -308.044C403.109 -285.366 382.465 -262.243 365.561 -235.28C354.765 -218.062 349.955 -201.354 350.698 -179.061C351.272 -162.078 353.878 -145.271 352.561 -128.223C349.474 -88.2096 325.58 -60.7694 304.455 -35.217C290.865 -18.783 278.454 -6.24841 271.459 17.1289C263.185 44.7585 259.712 74.8179 254.183 103.506C248.109 135.009 241.094 167.779 227.837 195.526C216.035 220.229 201.683 231.307 180.201 224.651C146.695 214.279 113.67 188.726 83.9246 165.087C53.649 141.037 23.8936 113.996 -1.19485 80.9382C-14.7398 63.0868 -23.9846 42.1262 -36.0135 22.9488C-51.1439 -1.12747 -85.373 7.99095 -105.715 10.0289C-139.484 13.4124 -245.738 38.7296 -235.934 -43.2707C-231.841 -77.4974 -215.725 -109.085 -203.939 -139.288C-199.054 -151.823 -191.984 -166.866 -190.879 -181.229C-189.676 -196.873 -200.486 -211.733 -207.486 -222.85Z" stroke="#FF8062" stroke-width="2"/>
<path fill-rule="evenodd" clip-rule="evenodd" d="M-195.192 -219.714C-212.986 -253.18 -234.281 -284.798 -249.549 -320.944C-259.454 -344.353 -269.181 -375.631 -256.403 -400.399C-241.982 -428.35 -210.183 -434.866 -186.817 -438.427C-162.744 -442.094 -134.005 -445.178 -114.329 -466.372C-108.069 -473.123 -102.909 -482.226 -101.948 -493.127C-101.022 -503.584 -103.637 -514.04 -102.77 -524.686C-100.829 -548.592 -89.8392 -568.289 -75.6703 -582.575C-33.7581 -624.838 28.6224 -634.236 79.1915 -635.34C104.503 -635.889 130.553 -633.007 156.028 -630.942C189.085 -628.262 222.192 -622.511 253.719 -608.65C320.75 -579.189 365.678 -513.85 397.057 -432.546C406.932 -406.954 414.489 -379.264 429.966 -358.698C437.944 -348.078 436.201 -340.452 428.044 -330.766C415.292 -315.631 399.736 -304.063 385.582 -291.431C365.451 -273.466 344.888 -255.232 327.084 -233.712C314.812 -218.877 306.101 -204.584 303.456 -182.339C301.569 -166.478 302.01 -150.316 300.876 -134.357C298.717 -104.04 291.323 -73.9521 278.234 -48.8046C267.834 -28.8722 255.453 -10.7566 242.656 6.51595C226.02 29.0036 211.951 51.8507 199.317 78.5405C182.568 113.87 159.034 179.039 119.583 161.793C76.0714 142.762 35.2884 94.408 7.37165 47.5571C-2.00326 31.8268 -9.69929 12.5349 -22.3428 0.934876C-41.2709 -16.403 -60.4763 -15.7953 -82.99 -15.7234C-116.696 -15.6254 -190.041 -5.97285 -190.834 -72.5797C-191.146 -98.9689 -182.489 -123.92 -178.344 -149.303C-173.669 -177.731 -183.038 -196.906 -195.192 -219.714Z" stroke="#F1B170" stroke-width="2"/>
<path fill-rule="evenodd" clip-rule="evenodd" d="M-181.938 -216.73C-199.539 -260.348 -239.007 -332.022 -208.989 -380.525C-193.132 -406.158 -165.086 -415.79 -141.559 -421.531C-122.625 -426.174 -99.7921 -427.918 -85.4866 -447.601C-74.9717 -462.073 -79.6395 -483.134 -75.6109 -501.25C-70.6112 -523.709 -59.1351 -542.086 -45.0327 -555.899C-5.62446 -594.501 49.1695 -606.348 96.5754 -608.869C145.81 -611.481 200.059 -599.262 246.389 -575.758C304.156 -546.442 347.435 -490.932 377.701 -420.636C383.285 -407.66 388.359 -394.344 393.721 -381.211C397.323 -372.401 402.665 -363.878 405.504 -354.611C410.231 -339.16 404.662 -326.53 395.732 -316.459C382.889 -301.961 367.111 -291.643 352.469 -280.763C332.445 -265.873 311.976 -251.251 293.349 -233.781C280.832 -222.026 267.731 -209.363 263.252 -188.968C260.194 -175.058 259.56 -160.325 259.669 -145.918C259.907 -115.028 258.678 -90.0485 247.747 -61.7578C229.76 -15.3119 202.1 26.4516 172.88 61.2011C149.947 88.4731 113.661 130.837 80.2482 112.604C50.2696 96.2772 32.7333 57.1979 12.9821 25.6026C3.37903 10.2426 -7.40831 -3.78526 -20.0836 -14.711C-36.0639 -28.4841 -51.1078 -34.2638 -70.0414 -36.5168C-101.908 -40.3111 -149.958 -41.2973 -159.809 -91.7138C-163.446 -110.32 -161.37 -129.592 -163.277 -148.439C-165.77 -173.36 -173.059 -194.728 -181.938 -216.73Z" stroke="#5BE7C3" stroke-width="2"/>
<path fill-rule="evenodd" clip-rule="evenodd" d="M-163.637 -215.114C-176.17 -262.841 -192.635 -322.99 -162.364 -365.408C-147.702 -385.956 -127.077 -397.443 -107.116 -406.028C-92.8195 -412.18 -70.1199 -413.991 -61.355 -432.905C-54.9175 -446.824 -54.0262 -466.026 -48.2027 -480.939C-40.2004 -501.442 -28.0781 -518.329 -13.8562 -531.549C23.194 -565.997 71.4504 -579.308 115.458 -583.12C211.08 -591.39 308.375 -525.521 359.543 -417.149C374.8 -384.845 394.494 -350.462 369.838 -317.459C342.919 -281.455 302.368 -264.587 270.24 -239.004C257.964 -229.236 242.321 -217.494 235.473 -199.809C231.353 -189.179 231.071 -175.841 230.882 -164.138C230.387 -134.332 228.51 -107.527 219.424 -79.7145C205.39 -36.7343 183.012 2.91808 157.653 35.3984C135.538 63.7206 103.999 97.005 71.8812 76.5872C47.2554 60.8962 31.637 27.5921 12.5028 3.0423C-8.79042 -24.2992 -35.1247 -42.723 -64.0439 -51.7257C-92.1758 -60.4603 -123.031 -66.351 -137.857 -103.46C-142.943 -116.189 -148.256 -132.671 -150.163 -146.761C-153.24 -169.991 -157.747 -192.851 -163.637 -215.114V-215.114Z" stroke="#FF8062" stroke-width="2"/>
<path fill-rule="evenodd" clip-rule="evenodd" d="M-143.23 -214.778C-149.028 -262.972 -149.673 -313.225 -122.733 -351.208C-110.16 -368.929 -94.2671 -381.518 -78.1955 -392.925C-66.371 -401.317 -54.16 -408.397 -45.3288 -422.156C-37.1468 -434.896 -30.9274 -449.688 -23.0279 -462.761C-12.6076 -480.085 -0.139381 -495.083 13.8976 -507.176C49.0836 -537.434 91.8866 -551.586 132.836 -556.494C152.659 -558.88 174.162 -560.122 193.852 -553.618C212.867 -547.343 231.669 -537.421 249.153 -525.851C286.321 -501.28 318.534 -465.297 341.886 -419.803C357.898 -388.597 366.555 -358.255 345.821 -326.598C322.444 -290.916 285.791 -271.228 255.581 -248.069C234.861 -232.185 211.638 -216.615 207.768 -182.86C204.685 -156.002 202.182 -130.509 194.209 -105.122C182.341 -67.674 164.892 -33.7518 142.896 -5.36764C122.781 20.4908 97.333 42.434 68.5598 28.6223C45.7633 17.6605 28.0761 -6.89718 8.15883 -24.4543C-14.0381 -44.0638 -38.4255 -54.8753 -64.1063 -63.5688C-87.1853 -71.4127 -108.916 -83.466 -123.833 -109.056C-126.886 -114.286 -130.092 -119.979 -132.446 -125.829C-135.45 -133.294 -135.217 -140.693 -135.806 -149.06C-137.343 -171.14 -140.609 -192.966 -143.23 -214.778Z" stroke="#F1B170" stroke-width="2"/>
<path fill-rule="evenodd" clip-rule="evenodd" d="M258.101 643.649C217.747 675.944 172.127 702.602 129.108 729.698C66.2407 769.29 2.4474 807.817 -63.6096 837.31C-99.0255 853.118 -144.918 875.909 -182.919 863.524C-196.813 858.997 -209.484 845.305 -221.941 836.408C-239.119 824.141 -256.55 812.481 -273.951 800.795C-308.856 777.37 -343.871 754.181 -378.178 729.254C-394.697 717.248 -410.726 702.125 -427.924 691.883C-437.974 685.893 -450 688.695 -460.739 689.074C-485.614 689.956 -510.475 691.628 -535.335 693.052C-565.744 694.79 -596.221 696.638 -626.664 695.952C-640.394 695.639 -674.022 698.853 -681.581 683.254C-685.648 674.853 -676.063 659.705 -671.62 652.696C-663.462 639.815 -654.085 628.207 -644.833 616.717C-623.434 590.144 -600.709 564.838 -581.688 535.155C-571.915 519.896 -559.111 501.253 -565.491 480.422C-571.93 459.382 -583.085 441.163 -589.891 420.195C-597.727 396.065 -600.976 370.955 -604.676 345.368C-607.416 326.457 -613.795 309.702 -619.794 292.268C-626.421 272.998 -633.287 253.564 -637.888 233.243C-640.93 219.819 -645.838 195.669 -635.199 187.171C-620.081 175.086 -591.733 184.871 -574.501 188.431C-550.686 193.344 -527.044 199.602 -503.293 204.991C-486.05 208.91 -468.748 213.208 -451.219 213.665C-422.96 214.404 -394.608 211.849 -366.424 209.472C-314.236 205.069 -262.422 199.099 -210.058 199.099C-164.182 199.099 -58.1659 269.104 -33.35 281.431C16.1828 306.038 67.0332 329.364 113.906 362.104C126.587 370.968 146.102 382.778 152.775 401.023C156.891 412.265 154.999 418.764 164.707 426.008C177.952 435.892 194.922 439.772 209.584 444.194C233.196 451.314 256.992 457.343 280.713 463.791C328.69 476.796 376.341 491.507 424.12 505.662C438.564 509.941 456.039 510.888 469.809 518.426C478.686 523.267 477.764 529.361 470.894 536.717C458.843 549.624 441.952 556.79 427.716 564.152C406.858 574.937 385.658 584.559 364.448 594.043C343.238 603.528 321.919 612.719 300.699 622.223C286.682 628.481 270.697 633.57 258.101 643.649Z" stroke="#FF8062" stroke-width="2"/>
<path fill-rule="evenodd" clip-rule="evenodd" d="M224.893 636.545C182.207 668.906 134.823 694.687 89.1442 719.839C30.6829 752.049 -29.1012 782.239 -90.6986 802.374C-126.865 814.188 -169.537 827.232 -206.492 813.684C-219.675 808.85 -229.524 797.984 -240.825 788.394C-253.707 777.45 -267.083 767.422 -280.46 757.551C-307.996 737.233 -335.823 717.608 -363.941 698.677C-378.834 688.609 -395.227 675.127 -412.052 671.634C-425.429 668.854 -440.624 672.877 -454.06 674.048C-478.257 676.154 -502.449 678.326 -526.656 680.171C-554.589 682.297 -582.601 684.259 -610.593 683.919C-626.194 683.729 -652.977 686.863 -664.011 673.564C-673.637 661.959 -638.59 619.988 -632.427 612.014C-613.179 587.117 -592.936 563.41 -575.021 536.786C-564.433 521.087 -551.542 501.992 -547.078 481.183C-543.278 463.449 -550.611 443.242 -554.941 426.849C-560.356 406.315 -564.726 385.029 -571.018 364.926C-576.621 347.016 -585.539 331.061 -593.372 314.779C-601.987 296.868 -610.712 278.663 -617.108 259.123C-621.027 247.1 -627.512 226.965 -619.724 215.504C-610.727 202.29 -582.992 210.925 -571.592 212.809C-548.465 216.682 -525.517 222.438 -502.549 227.593C-464.4 236.149 -428.03 243.633 -389.183 241.84C-338.594 239.499 -288.055 233.991 -237.476 230.942C-218.798 229.804 -199.823 227.514 -181.13 228.751C-170.414 229.464 -162.254 233.781 -156.022 243.522C-147.51 256.814 -127.906 264.173 -114.271 271.801C-93.0123 283.687 -71.4857 294.742 -50.0185 305.941C-2.89275 330.537 45.1397 354.244 89.8328 386.056C103.973 396.117 120.163 407.335 130.622 423.957C136.458 433.227 134.987 442.156 138.549 452.008C143.265 464.967 158.773 470.815 168.042 475.054C185.932 483.244 204.556 488.732 223.035 493.874C264.85 505.505 306.764 513.152 349.257 518.784C359.216 520.092 398.429 524.626 377.834 546.474C355.079 570.619 322.221 582.453 295.433 596.059C271.301 608.292 247.148 619.674 224.893 636.545Z" stroke="#5BE7C3" stroke-width="2"/>
<path fill-rule="evenodd" clip-rule="evenodd" d="M165.901 630.56C125.777 659.03 81.3283 680.27 38.1146 700.589C-14.3241 725.244 -68.0771 747.222 -123.075 759.534C-157.624 767.26 -195.714 773.197 -230.03 760.357C-253.465 751.592 -271.593 727.896 -292.175 711.594C-312.758 695.292 -334.174 679.989 -356.23 667.233C-369.918 659.317 -384.644 651.343 -399.875 652.388C-436.909 654.922 -473.898 660.963 -510.972 663.896C-535.497 665.855 -560.072 667.468 -584.672 666.985C-599.507 666.698 -619.886 667.873 -633.019 657.58C-647.536 646.196 -570.24 548.997 -562.934 538.057C-544.618 510.626 -522.438 474.22 -525.98 435.209C-529.367 397.915 -544.048 370.072 -560.653 340.851C-570.076 324.229 -600.295 279.823 -589.096 258.204C-582.698 245.847 -561.61 250.125 -551.591 250.968C-531.847 252.627 -512.211 256.193 -492.571 259.289C-463.934 263.776 -434.508 270.705 -405.747 272.736C-385.72 274.147 -365.574 272.26 -345.512 272.22C-316.746 272.168 -287.979 272.456 -259.213 272.795C-235.06 273.083 -210.703 272.795 -186.633 275.852C-171.67 277.733 -160.312 281.959 -149.579 293.898C-140.24 304.283 -126.15 310.363 -114.247 316.966C-94.5865 327.867 -74.6685 337.971 -54.8149 348.238C-13.2478 369.739 28.7954 390.79 68.582 417.659C86.7443 429.919 117.281 447.083 121.541 476.807C123.079 487.525 124.21 492.155 132.145 498.249C143.409 506.897 156.899 510.796 169.536 514.185C198.997 522.088 229.31 520.906 258.721 528.718C270.699 531.937 286.337 538.887 272.663 554.797C256.708 573.405 233.481 583.633 214.367 595.128C204.824 600.862 194.994 606.231 185.933 613.233C178.975 618.627 173.018 625.544 165.901 630.56Z" stroke="#5ACEF2" stroke-width="2"/>
<path fill-rule="evenodd" clip-rule="evenodd" d="M89.9053 621.672C52.8358 644.796 12.5772 661.608 -26.9583 676.764C-70.8713 693.577 -115.844 707.502 -161.411 713.427C-192.875 717.532 -226.399 718.743 -256.937 706.179C-276.249 698.231 -289.342 681.517 -305.96 667.5C-331.041 646.314 -358.177 629.528 -388.309 633.613C-422.091 638.183 -455.983 641.612 -489.986 643.899C-510.496 645.28 -531.086 646.314 -551.621 645.352C-564.605 644.75 -581.332 643.735 -592.628 635.977C-607.741 625.587 -550.973 546.526 -543.896 535.004C-526.347 506.427 -513.482 476.442 -505.965 441.036C-499.835 412.145 -512.358 389.433 -525.277 367.822C-533.309 354.401 -559.262 320.645 -551.136 303.217C-546.679 293.606 -531.992 294.104 -524.104 293.613C-509.07 292.683 -493.972 293.652 -478.938 294.078C-456.739 294.732 -433.109 290.235 -411.098 293.855C-362.317 301.868 -313.66 308.808 -264.578 314.301C-237.521 317.326 -210.3 320.075 -183.486 325.909C-173.86 328.004 -163.916 330.223 -154.795 334.963C-148.927 338.007 -145.728 343.193 -140.776 347.448C-117.166 367.704 -86.3458 378.127 -59.7544 391.109C-24.4031 408.367 11.1363 425.356 45.5466 445.743C63.6456 456.467 88.9248 468.788 101.379 490.675C105.142 497.287 103.538 502.577 105.905 508.934C108.628 516.267 116.903 518.453 122.246 520.496C134.373 525.138 185.134 532.156 161.742 559.385C150.58 572.354 136.359 580.675 123.776 590.869C119.22 594.561 114.778 598.273 110.98 603.255C104.627 611.609 98.368 616.375 89.9053 621.672Z" stroke="#F1B170" stroke-width="2"/>
<path fill-rule="evenodd" clip-rule="evenodd" d="M8.93212 611.661C-64.248 649.072 -150.012 674.56 -229.796 669.622C-256.328 667.973 -284.875 662.473 -307.874 643.65C-321.435 632.531 -332.272 619.98 -348.563 615.964C-360.323 613.067 -372.986 616.357 -384.816 617.547C-401.949 619.274 -419.093 620.817 -436.252 622.066C-457.524 623.59 -478.866 624.768 -500.178 624.14C-515.406 623.688 -536.435 624.199 -549.664 613.407C-565.458 600.535 -525.256 540.155 -519.599 529.396C-505.889 503.319 -496.278 478.054 -492.804 446.627C-491.782 437.47 -488.338 428.085 -488.785 418.856C-489.251 409.432 -493.653 401.04 -497.717 393.63C-503.031 383.918 -521.47 360.882 -516.19 349.038C-513.273 342.497 -502.321 341.673 -496.645 340.287C-485.996 337.671 -475.194 336.264 -464.481 334.185C-446.305 330.64 -428.258 319.096 -410.018 319.423C-360.968 320.286 -311.209 340.352 -263.141 351.373C-234.565 357.946 -205.795 363.911 -177.566 372.812C-168.634 375.631 -159.435 378.548 -150.945 383.329C-145.02 386.665 -141.214 392.61 -135.726 396.344C-114.682 410.687 -90.4823 419.393 -67.8852 429.046C-38.5496 441.604 -9.11481 453.782 20.0173 467.151C38.2776 475.529 61.758 482.9 77.4926 498.44C88.9847 509.787 81.1298 513.182 75.0662 523.751C71.9698 529.141 72.6844 534.451 71.3397 540.553C69.4194 549.265 63.9909 555.538 58.8998 561.175C51.8786 568.965 42.5251 575.381 36.784 584.93C34.7595 588.292 34.8538 592.465 33.2163 595.395C28.4528 603.93 15.8145 608.142 8.93212 611.661Z" stroke="#FF8062" stroke-width="2"/>
<path fill-rule="evenodd" clip-rule="evenodd" d="M-68.8734 598.331C-128.267 621.852 -194.353 635.245 -257.135 629.029C-278.978 626.864 -300.956 621.832 -321.304 610.782C-330.561 605.77 -337.51 600.183 -347.655 599.882C-371.192 599.188 -394.804 601.616 -418.337 602.198C-435.178 602.617 -452.103 602.767 -468.904 600.981C-480.138 599.79 -495.329 598.364 -504.532 589.276C-517.906 576.041 -493.764 531.047 -488.851 518.616C-480.708 498.001 -472.629 475.082 -475.858 451.228C-476.849 443.933 -478.602 437.488 -478.83 430.049C-479.048 423.657 -478.439 417.756 -480.158 411.645C-482.283 404.069 -491.733 392.311 -488.484 385.337C-486.27 380.574 -479.702 380.352 -475.333 378.827C-468.248 376.355 -461.329 373.112 -454.649 369.131C-447.615 364.918 -441.627 358.408 -434.341 354.927C-422.512 349.287 -409.272 348.757 -396.84 348.784C-347.234 348.888 -296.998 361.797 -248.65 375.294C-223.473 382.321 -198.157 389.812 -173.688 400.47C-166.258 403.709 -157.838 406.96 -151.305 412.94C-147.228 416.663 -144.464 421.328 -139.833 424.128C-100.272 448.035 -54.5339 456.913 -12.5357 474.179C-1.60398 478.674 58.9787 501.383 27.3029 522.745C8.05972 535.725 -12.2732 541.627 -29.8323 559.383C-35.1817 564.781 -38.7481 569.249 -40.8383 577.487C-42.2153 582.969 -38.9016 580.189 -43.5279 585.92C-49.1399 592.809 -61.9538 595.59 -68.8734 598.331Z" stroke="#F1B170" stroke-width="2"/>
</g>
</svg>
